<?xml version="1.0" encoding="UTF-8" standalone="no"?>
<!DOCTYPE svg PUBLIC "-//W3C//DTD SVG 20010904//EN" "http://www.w3.org/TR/2001/REC-SVG-20010904/DTD/svg10.dtd">
<svg version="1.0" xmlns="http://www.w3.org/2000/svg" width="1967.000000pt" height="406.000000pt" viewBox="0 0 1967.000000 406.000000" preserveAspectRatio="xMidYMid meet">
<metadata>
Created by potrace 1.16, written by Peter Selinger 2001-2019
</metadata>
<g transform="translate(0.000000,406.000000) scale(0.100000,-0.100000)" fill="#ee5b53" stroke="none">
<path d="M2967 3823 c-4 -3 -7 -603 -7 -1333 0 -1018 3 -1329 12 -1338 9 -9 82 -12 265 -12 l253 0 -2 1343 -3 1342 -256 3 c-140 1 -258 -1 -262 -5z"/>
<path d="M13122 3658 c-17 -17 -17 -289 0 -306 9 -9 148 -12 564 -12 304 0 559 3 568 6 24 9 24 309 0 318 -9 3 -264 6 -568 6 -416 0 -555 -3 -564 -12z"/>
<path d="M11343 3513 c-15 -3 -25 -14 -29 -31 -3 -15 -12 -52 -19 -82 -7 -30 -16 -77 -20 -105 -15 -115 -38 -231 -48 -243 -9 -11 -43 -13 -156 -9 -81 2 -152 2 -158 0 -10 -4 -13 -55 -13 -209 0 -112 3 -204 8 -205 4 -1 66 -2 139 -3 72 0 134 -4 138 -8 4 -3 6 -210 6 -460 -1 -249 3 -491 9 -536 10 -88 58 -236 94 -287 31 -45 99 -115 112 -115 6 0 19 -9 28 -19 10 -11 32 -24 49 -31 18 -6 43 -18 57 -25 97 -50 366 -64 514 -25 44 11 87 27 96 35 9 8 25 15 36 15 11 0 34 13 52 30 18 17 37 30 41 30 5 0 31 24 58 53 117 123 165 303 132 496 -18 104 -9 100 -243 98 l-201 -2 2 -30 c14 -169 8 -216 -33 -264 -30 -36 -71 -49 -137 -43 -57 5 -101 43 -116 100 -12 41 -17 970 -6 980 4 4 122 8 263 9 l257 1 0 206 0 206 -258 1 c-156 1 -260 5 -263 11 -4 5 -6 105 -5 221 0 117 -4 219 -9 227 -8 12 -40 15 -182 16 -95 1 -183 0 -195 -3z"/>
<path d="M13570 3108 c-52 -4 -106 -12 -120 -18 -14 -5 -47 -14 -74 -20 -62 -14 -224 -90 -290 -137 -109 -78 -209 -195 -263 -309 -15 -33 -32 -62 -38 -66 -5 -4 -7 -8 -2 -8 4 0 1 -10 -7 -22 -14 -24 -55 -153 -63 -198 -21 -130 -23 -190 -8 -370 8 -99 63 -302 95 -350 9 -14 22 -39 29 -57 28 -69 139 -193 245 -271 82 -61 237 -126 386 -162 87 -21 223 -28 338 -18 130 11 282 58 392 121 151 85 326 275 385 417 15 36 35 83 45 105 40 92 65 284 55 433 -13 198 -66 370 -155 501 -80 119 -235 265 -325 306 -22 10 -52 27 -67 37 -15 10 -30 17 -35 16 -4 -1 -17 3 -29 9 -11 7 -32 14 -45 17 -13 2 -44 11 -69 20 -25 9 -88 19 -140 22 -52 2 -106 6 -120 8 -14 1 -68 -1 -120 -6z m248 -414 c105 -45 128 -59 178 -106 69 -65 106 -123 140 -223 26 -74 28 -92 28 -245 1 -181 -10 -254 -51 -335 -14 -27 -34 -66 -44 -86 -28 -56 -123 -133 -203 -166 -64 -25 -82 -28 -186 -28 -107 1 -120 3 -184 32 -86 38 -169 116 -214 200 -18 34 -37 65 -42 68 -6 4 -10 21 -10 39 0 18 -3 36 -7 40 -10 9 -12 34 -17 201 -6 181 13 280 75 386 39 68 127 157 183 186 99 52 277 71 354 37z"/>
<path d="M1175 3084 c-229 -30 -392 -109 -537 -260 -72 -76 -147 -200 -198 -329 -32 -81 -66 -310 -64 -425 4 -147 62 -387 114 -470 5 -8 20 -38 33 -65 84 -177 299 -346 517 -406 25 -7 51 -11 58 -10 8 1 20 -3 27 -9 8 -7 67 -11 157 -12 173 -1 208 7 388 90 19 9 81 63 137 120 67 68 105 99 108 91 2 -8 6 -68 7 -134 l3 -120 235 -3 c129 -2 250 0 267 3 l33 6 0 938 c0 743 -2 940 -12 947 -7 5 -129 8 -270 6 l-258 -3 0 -119 c0 -90 -3 -120 -12 -120 -7 0 -33 23 -57 50 -24 28 -49 50 -56 50 -7 0 -15 4 -17 8 -13 31 -205 142 -250 144 -13 1 -27 5 -33 8 -12 9 -121 28 -185 33 -25 1 -85 -2 -135 -9z m380 -448 c195 -52 331 -212 366 -429 13 -87 7 -269 -12 -327 -51 -157 -171 -283 -312 -325 -71 -22 -209 -30 -282 -16 -138 26 -265 126 -332 262 -58 119 -82 262 -63 385 14 100 34 160 73 226 15 26 27 51 27 56 0 20 115 113 175 142 102 50 236 60 360 26z"/>
<path d="M4998 3075 c-52 -10 -105 -30 -166 -62 -95 -50 -145 -92 -224 -183 -26 -29 -50 -51 -54 -48 -3 4 -6 62 -7 130 l-2 123 -268 3 -267 2 2 -1387 3 -1388 250 0 c138 0 258 3 268 7 16 7 17 41 17 559 0 303 1 554 4 556 2 3 38 -28 78 -69 41 -40 87 -80 103 -88 17 -8 39 -22 50 -31 38 -33 202 -89 231 -79 4 1 10 -4 14 -10 12 -19 249 -16 340 4 100 22 218 63 255 90 17 12 42 28 57 35 56 29 178 153 238 243 33 50 60 97 60 105 0 7 4 21 10 31 22 39 72 212 82 287 6 46 8 145 5 235 -7 191 -27 282 -93 427 -8 17 -14 34 -14 37 0 3 -17 32 -37 63 -138 216 -319 347 -553 400 -96 21 -290 26 -382 8z m236 -454 c139 -66 246 -192 289 -341 21 -70 25 -297 8 -360 -69 -247 -241 -390 -468 -390 -266 0 -461 161 -516 425 -17 83 -16 258 3 330 51 197 195 330 395 364 28 5 88 8 135 7 73 -2 96 -7 154 -35z"/>
<path d="M7250 3079 c-36 -4 -76 -11 -90 -15 -14 -4 -32 -9 -40 -10 -35 -4 -106 -27 -139 -45 -20 -10 -41 -19 -47 -19 -15 0 -171 -96 -203 -124 -98 -89 -151 -141 -151 -149 0 -5 -16 -28 -35 -51 -19 -23 -41 -58 -50 -77 -8 -19 -20 -41 -25 -49 -17 -27 -48 -104 -65 -165 -10 -33 -23 -71 -29 -84 -17 -38 -13 -426 5 -415 5 3 9 -6 9 -20 0 -38 54 -192 90 -261 18 -32 49 -82 70 -110 42 -57 178 -185 196 -185 6 0 19 -9 30 -21 35 -39 215 -116 344 -148 188 -46 502 -47 630 -1 14 5 59 19 100 31 41 12 84 30 96 41 11 10 28 18 37 18 25 0 66 20 141 69 77 50 196 157 196 176 0 12 -278 285 -290 285 -4 0 -26 -15 -50 -32 -24 -18 -50 -37 -59 -43 -9 -5 -29 -19 -46 -30 -39 -26 -167 -81 -225 -96 -61 -16 -280 -13 -360 4 -153 33 -299 137 -355 251 -27 56 -48 147 -36 159 4 4 353 7 775 7 l768 0 -6 110 c-6 111 -13 148 -49 275 -32 114 -96 251 -157 337 -86 120 -268 266 -383 305 -23 8 -47 19 -53 24 -17 14 -108 38 -209 54 -97 16 -231 18 -335 4z m309 -444 c94 -24 158 -60 222 -125 74 -74 122 -177 97 -207 -8 -10 -107 -13 -485 -13 -407 0 -474 2 -479 15 -14 36 68 176 133 228 13 10 30 25 37 33 8 8 19 14 24 14 5 0 15 7 22 15 7 8 22 15 35 15 12 0 25 3 29 8 4 4 33 14 64 22 73 20 217 18 301 -5z"/>
<path d="M9786 3079 c-32 -5 -64 -13 -71 -19 -7 -6 -29 -13 -48 -15 -60 -8 -199 -105 -271 -190 -68 -79 -75 -75 -69 40 3 52 2 106 -1 120 l-6 25 -263 -2 -262 -3 -3 -947 -2 -948 265 0 c146 0 266 1 267 3 1 1 5 274 8 607 l5 605 39 79 c46 95 96 148 173 183 50 23 72 27 154 28 81 0 104 -4 150 -24 66 -30 144 -107 170 -169 45 -105 49 -164 49 -754 l0 -558 259 0 c210 0 261 3 270 14 14 17 14 1175 1 1247 -5 24 -16 85 -25 134 -10 50 -23 101 -30 115 -6 14 -19 41 -28 60 -8 19 -25 58 -38 85 -44 97 -200 230 -294 251 -16 4 -35 10 -40 15 -33 25 -238 36 -359 18z"/>
<path d="M16055 3076 c-33 -7 -70 -17 -82 -24 -12 -7 -29 -12 -38 -12 -37 0 -162 -86 -235 -162 -41 -43 -79 -78 -83 -78 -4 0 -7 54 -7 120 l0 120 -32 0 c-283 4 -491 1 -499 -7 -6 -6 -8 -373 -7 -949 l3 -939 254 -3 c173 -2 258 1 267 9 10 8 14 127 17 602 3 498 6 598 18 629 9 21 18 41 22 44 4 4 7 14 7 23 0 9 21 42 47 74 84 103 218 146 364 118 120 -24 197 -99 250 -246 21 -57 23 -78 26 -430 2 -203 4 -471 6 -595 l2 -225 262 -3 263 -2 6 25 c3 13 4 307 1 652 l-5 628 -30 115 c-67 259 -194 424 -377 485 -129 44 -294 56 -420 31z"/>
<path d="M18105 3076 c-230 -39 -418 -134 -571 -291 -100 -102 -164 -200 -208 -315 -15 -41 -34 -88 -41 -105 -22 -50 -35 -183 -31 -310 5 -186 9 -207 73 -375 14 -36 31 -72 38 -80 6 -8 14 -22 17 -30 10 -28 96 -135 155 -192 60 -58 188 -148 211 -148 8 0 26 -9 41 -19 34 -25 224 -88 291 -97 107 -15 269 -24 340 -18 102 7 334 58 375 83 6 3 15 6 20 7 23 5 157 75 183 96 9 8 29 20 44 28 15 7 62 44 103 82 l75 69 -143 140 c-147 143 -176 161 -208 123 -19 -23 -135 -95 -209 -130 -178 -84 -447 -80 -623 9 -96 48 -174 122 -215 203 -31 63 -49 148 -33 158 5 4 351 6 769 7 650 0 761 2 766 14 17 46 -40 407 -72 448 -5 7 -17 35 -27 62 -65 180 -270 403 -439 479 -193 87 -271 106 -456 111 -94 3 -173 0 -225 -9z m350 -443 c119 -37 192 -87 260 -178 43 -57 66 -129 50 -154 -9 -16 -947 -15 -962 0 -19 19 19 103 82 182 114 144 371 211 570 150z"/>
</g>
</svg>